<svg xmlns="http://www.w3.org/2000/svg" viewBox="0 0 800 600">
  <rect width="800" height="600" fill="#0C0C0C"/>
  <!-- Header -->
  <rect x="0" y="0" width="800" height="52" fill="#0F1114"/>
  <rect x="14" y="10" width="30" height="30" rx="8" fill="#3B82F6" opacity="0.15"/>
  <text x="18" y="31" font-family="Arial,sans-serif" font-size="18" fill="#3B82F6" opacity="0.9">⊕</text>
  <text x="52" y="32" font-family="Arial,sans-serif" font-size="15" font-weight="700" fill="#D7E2EA" letter-spacing="0.5">Smart Med</text>
  <text x="190" y="32" font-family="Arial,sans-serif" font-size="11" fill="#D7E2EA" opacity="0.35">Healthcare Platform · FastAPI</text>
  <rect x="680" y="12" width="100" height="28" rx="8" fill="#3B82F6" opacity="0.15"/>
  <text x="700" y="31" font-family="Arial,sans-serif" font-size="11" fill="#3B82F6">JWT Secured</text>
  <!-- Top stats -->
  <text x="20" y="80" font-family="Arial,sans-serif" font-size="10" fill="#D7E2EA" opacity="0.35" letter-spacing="2">MULTI-USER DASHBOARD</text>
  <rect x="20" y="92" width="170" height="88" rx="14" fill="#141418"/>
  <text x="36" y="116" font-family="Arial,sans-serif" font-size="11" fill="#D7E2EA" opacity="0.45">Active Users</text>
  <text x="36" y="152" font-family="Arial,sans-serif" font-size="30" font-weight="700" fill="#3B82F6">248</text>
  <text x="36" y="170" font-family="Arial,sans-serif" font-size="10" fill="#3B82F6" opacity="0.7">↑ 12 today</text>
  <rect x="200" y="92" width="170" height="88" rx="14" fill="#141418"/>
  <text x="216" y="116" font-family="Arial,sans-serif" font-size="11" fill="#D7E2EA" opacity="0.45">API Requests</text>
  <text x="216" y="152" font-family="Arial,sans-serif" font-size="30" font-weight="700" fill="#D7E2EA">14k</text>
  <text x="216" y="170" font-family="Arial,sans-serif" font-size="10" fill="#D7E2EA" opacity="0.4">Today</text>
  <rect x="380" y="92" width="170" height="88" rx="14" fill="#141418"/>
  <text x="396" y="116" font-family="Arial,sans-serif" font-size="11" fill="#D7E2EA" opacity="0.45">Medications</text>
  <text x="396" y="152" font-family="Arial,sans-serif" font-size="30" font-weight="700" fill="#3B82F6">1,847</text>
  <text x="396" y="170" font-family="Arial,sans-serif" font-size="10" fill="#3B82F6" opacity="0.7">Tracked</text>
  <rect x="560" y="92" width="220" height="88" rx="14" fill="#141418"/>
  <text x="576" y="116" font-family="Arial,sans-serif" font-size="11" fill="#D7E2EA" opacity="0.45">Auth Method</text>
  <text x="576" y="148" font-family="Arial,sans-serif" font-size="15" font-weight="700" fill="#D7E2EA">JWT + bcrypt</text>
  <text x="576" y="168" font-family="Arial,sans-serif" font-size="10" fill="#3B82F6" opacity="0.7">HTTPS · Rate Limited</text>
  <!-- Patient list -->
  <text x="20" y="208" font-family="Arial,sans-serif" font-size="10" fill="#D7E2EA" opacity="0.35" letter-spacing="2">PATIENTS · SQLITE (NORMALIZED)</text>
  <rect x="20" y="220" width="460" height="52" rx="10" fill="#141418"/>
  <circle cx="52" cy="246" r="16" fill="#3B82F6" opacity="0.15"/>
  <text x="52" y="251" font-family="Arial,sans-serif" font-size="11" fill="#3B82F6" text-anchor="middle">PM</text>
  <text x="80" y="238" font-family="Arial,sans-serif" font-size="13" fill="#D7E2EA">Priya Mehta</text>
  <text x="80" y="256" font-family="Arial,sans-serif" font-size="11" fill="#D7E2EA" opacity="0.4">Diabetes Type 2 · 3 medications</text>
  <rect x="420" y="232" width="40" height="20" rx="5" fill="#3B82F6" opacity="0.1"/>
  <text x="430" y="246" font-family="Arial,sans-serif" font-size="10" fill="#3B82F6">View</text>
  <rect x="20" y="280" width="460" height="52" rx="10" fill="#141418"/>
  <circle cx="52" cy="306" r="16" fill="#3B82F6" opacity="0.12"/>
  <text x="52" y="311" font-family="Arial,sans-serif" font-size="11" fill="#3B82F6" text-anchor="middle">RK</text>
  <text x="80" y="298" font-family="Arial,sans-serif" font-size="13" fill="#D7E2EA">Ramesh Kumar</text>
  <text x="80" y="316" font-family="Arial,sans-serif" font-size="11" fill="#D7E2EA" opacity="0.4">Hypertension · 2 medications</text>
  <rect x="420" y="292" width="40" height="20" rx="5" fill="#3B82F6" opacity="0.1"/>
  <text x="430" y="306" font-family="Arial,sans-serif" font-size="10" fill="#3B82F6">View</text>
  <!-- API endpoints -->
  <text x="500" y="208" font-family="Arial,sans-serif" font-size="10" fill="#D7E2EA" opacity="0.35" letter-spacing="2">FASTAPI ENDPOINTS</text>
  <rect x="500" y="220" width="280" height="200" rx="14" fill="#0F1114"/>
  <text x="516" y="246" font-family="Arial,sans-serif" font-size="10" fill="#3B82F6">POST</text>
  <text x="556" y="246" font-family="Arial,sans-serif" font-size="10" fill="#D7E2EA" opacity="0.6">/auth/register</text>
  <text x="516" y="270" font-family="Arial,sans-serif" font-size="10" fill="#22C55E">GET</text>
  <text x="556" y="270" font-family="Arial,sans-serif" font-size="10" fill="#D7E2EA" opacity="0.6">/patients/{id}</text>
  <text x="516" y="294" font-family="Arial,sans-serif" font-size="10" fill="#3B82F6">POST</text>
  <text x="556" y="294" font-family="Arial,sans-serif" font-size="10" fill="#D7E2EA" opacity="0.6">/medications/add</text>
  <text x="516" y="318" font-family="Arial,sans-serif" font-size="10" fill="#22C55E">GET</text>
  <text x="556" y="318" font-family="Arial,sans-serif" font-size="10" fill="#D7E2EA" opacity="0.6">/interactions/check</text>
  <text x="516" y="342" font-family="Arial,sans-serif" font-size="10" fill="#EF4444">DEL</text>
  <text x="556" y="342" font-family="Arial,sans-serif" font-size="10" fill="#D7E2EA" opacity="0.6">/prescriptions/{id}</text>
  <text x="516" y="366" font-family="Arial,sans-serif" font-size="10" fill="#3B82F6">PUT</text>
  <text x="556" y="366" font-family="Arial,sans-serif" font-size="10" fill="#D7E2EA" opacity="0.6">/patients/{id}/update</text>
  <text x="516" y="396" font-family="Arial,sans-serif" font-size="9" fill="#D7E2EA" opacity="0.25">FastAPI · SQLite · JWT · bcrypt</text>
  <!-- Tech badges -->
  <rect x="20" y="458" width="80" height="28" rx="6" fill="#3B82F6" opacity="0.1"/>
  <text x="36" y="477" font-family="Arial,sans-serif" font-size="10" fill="#3B82F6">FastAPI</text>
  <rect x="110" y="458" width="80" height="28" rx="6" fill="#3B82F6" opacity="0.08"/>
  <text x="126" y="477" font-family="Arial,sans-serif" font-size="10" fill="#3B82F6">SQLite</text>
  <rect x="200" y="458" width="80" height="28" rx="6" fill="#3B82F6" opacity="0.06"/>
  <text x="216" y="477" font-family="Arial,sans-serif" font-size="10" fill="#3B82F6">JWT Auth</text>
  <rect x="290" y="458" width="80" height="28" rx="6" fill="#3B82F6" opacity="0.06"/>
  <text x="306" y="477" font-family="Arial,sans-serif" font-size="10" fill="#3B82F6">Python</text>
</svg>